<?xml version="1.0" encoding="UTF-8" standalone="no"?>
<svg
   xmlns="http://www.w3.org/2000/svg"
   width="225.01262mm"
   height="205.24295mm"
   viewBox="0 0 225.01262 205.24295"
   version="1.1"
   id="svg1406">
  <g
     id="layer1"
     transform="translate(-5.6478838,-16.744262)">
    <path
       style="fill:none;fill-rule:evenodd;stroke:#000000;stroke-width:0.264583"
       id="path2409"
       d="m -128.8905,-109.50404 c 4.18909,4.94851 -4.60375,8.08824 -8.22476,6.96255 -9.81271,-3.05054 -10.3556,-15.98926 -5.70035,-23.41207 8.32715,-13.27766 27.09183,-13.35469 38.59938,-4.43815 16.88779,13.08539 16.457072,38.350219 3.17595,53.786694 -17.70166,20.574392 -49.6646,19.604328 -68.97401,1.913745 -24.29891,-22.261792 -22.77497,-61.005829 -0.65154,-84.161309 26.79443,-28.04439 72.362226,-25.95919 99.348625,0.61065 31.802536,31.31165 29.151928,83.72808 -1.872861,114.535941 -35.819344,35.5688939 -95.100234,32.350361 -129.723244,-3.135063 -39.34087,-40.320795 -35.55278,-106.476828 4.39726,-144.910558 44.81791,-43.11684 117.856656,-38.75807 160.097872,5.65947 44.6351689,46.93482 42.6851646,122.380774 -0.930711,169.257763"
       transform="scale(-1)" />
  </g>
</svg>
