<svg
   xmlns="http://www.w3.org/2000/svg"
   stroke-width="0.501"
   stroke-linejoin="bevel"
   fill-rule="evenodd"
   version="1.1"
   overflow="visible"
   viewBox="0 0 34.899 45.166"
   width="23.1"
   height="30"
   id="svg2886">
  <g
     fill="none"
     stroke="#000"
     font-family="Times New Roman"
     font-size="16px"
     transform="matrix(1,0,0,-1,-20.051,-14.917)"
     id="g2880">
    <g transform="translate(0,-75)" id="g2878">
      <g id="g2876">
        <path
           d="m 30.323,14.917 v 0.691 h -0.007 v 5.463 h 2.049 v -4.105 h 16.429 v 4.105 h 2.049 v -6.154 z
              m -2.061,6.151 v 4.111 h 2.049 v -4.111 z
              m 22.585,0.007 v 6.157 h 2.049 v -6.157 z
              m -24.636,4.109 v 4.102 h 2.049 v -4.102 z
              m 26.69,2.053 V 41.604 H 54.95 V 27.237 Z
              M 24.158,29.29 v 4.103 h 2.049 V 29.29 Z
              m 4.104,2.054 v 6.159 h -2.051 v 2.047 h 2.051 v 18.482 h 2.049 V 31.344 Z
              m -6.159,2.052 v 2.048 h 2.048 v -2.048 z
              m -2.052,2.048 v 6.16 h 6.156 V 39.556 H 22.1 v -4.112 z
              m 26.69,2.06 v 8.209 h 4.101 V 43.664 H 48.79 v -6.16 z
              m -12.317,2.051 v 18.479 h 2.049 v -8.216 h 4.104 v -2.049 h -4.104 v -8.214 z
              m 6.16,0.002 v 8.209 h 6.154 v -2.049 h -4.105 v -6.16 z
              m 10.264,2.053 v 2.048 h 2.048 V 41.61 Z
              M 30.315,58.036 v 2.047 h 4.105 v -2.047 z"
           fill="#000"
           stroke-linejoin="miter"
           stroke-width="0.061"
           stroke="none"
           id="path2874" />
      </g>
    </g>
  </g>
  <path
     style="fill:#fff;fill-opacity:100;stroke-width:1.25"
     d="M 12.323,40.887 V 38.902 H 11.331 10.339 V 36.753 34.604 H 9.347 8.355 v -1.984 -1.984 h -0.992 -0.992 v -1.984 -1.984 h -0.992
        c -0.913,0 -0.992,-0.092 -0.992,-1.157 0,-1.102 -0.055,-1.157 -1.157,-1.157 h -1.157 v -1.819 -1.819 h 1.984 1.984 v 0.992
        c 0,0.882 0.11,0.992 0.992,0.992 h 0.992 v 3.142 3.142 h 1.157 1.157 V 15.589 2.196 h 1.984 1.984 v 9.259 9.259 h 1.157 1.157
        v -4.134 -4.134 h 1.819 1.819 v 4.134 4.134 h 1.323 1.323 V 17.573 14.432 h 1.819 1.819 v 4.134 4.134 h 1.157 1.157 v -2.976
        c 0,-2.954 0.006,-2.976 0.827,-2.976 0.698,0 0.827,0.154 0.827,0.992 0,0.913 0.092,0.992 1.157,0.992 h 1.157 v 6.944 6.944 h -1.157 -1.157
        v 3.142 3.142 h -0.992 -0.992 v 1.984 1.984 h -8.102 -8.102 z"
     id="path3455" />
</svg>
