<?xml version="1.0" encoding="UTF-8" standalone="no"?>
<!-- Created with Inkscape (http://www.inkscape.org/) -->

<svg
   width="4.4621301mm"
   height="6.7608032mm"
   viewBox="0 0 4.4621301 6.7608032"
   version="1.1"
   id="svg5"
   inkscape:version="1.1.2 (0a00cf5339, 2022-02-04)"
   sodipodi:docname="vintage0cursor.svg"
   xmlns:inkscape="http://www.inkscape.org/namespaces/inkscape"
   xmlns:sodipodi="http://sodipodi.sourceforge.net/DTD/sodipodi-0.dtd"
   xmlns="http://www.w3.org/2000/svg"
   xmlns:svg="http://www.w3.org/2000/svg">
  <sodipodi:namedview
     id="namedview7"
     pagecolor="#ffffff"
     bordercolor="#666666"
     borderopacity="1.0"
     inkscape:pageshadow="2"
     inkscape:pageopacity="0.0"
     inkscape:pagecheckerboard="0"
     inkscape:document-units="mm"
     showgrid="false"
     fit-margin-top="0"
     fit-margin-left="0"
     fit-margin-right="0"
     fit-margin-bottom="0"
     inkscape:zoom="1.6017536"
     inkscape:cx="-6.2431573"
     inkscape:cy="24.036156"
     inkscape:window-width="2179"
     inkscape:window-height="1119"
     inkscape:window-x="1238"
     inkscape:window-y="48"
     inkscape:window-maximized="0"
     inkscape:current-layer="layer1" />
  <defs
     id="defs2" />
  <g
     inkscape:label="Layer 1"
     inkscape:groupmode="layer"
     id="layer1"
     transform="translate(-91.515603,-134.78543)">
    <g
       transform="matrix(0.06760803,0,0,0.06760803,90.439661,135.68941)"
       id="g860">
      <g
         transform="translate(-3.0855893,-13.370885)"
         id="g856">
        <path
           d="m 31,11 h 6 v 6 h -6 z"
           id="path824" />
        <path
           d="m 37,17 h 6 v 6 h -6 z"
           id="path826" />
        <path
           d="m 43,23 h 6 v 6 h -6 z"
           id="path828" />
        <path
           d="m 49,29 h 6 v 6 h -6 z"
           id="path830" />
        <path
           d="m 55,35 h 6 v 6 h -6 z"
           id="path832" />
        <path
           d="m 61,41 h 6 v 6 h -6 z"
           id="path834" />
        <path
           d="m 67,47 h 6 v 6 h -6 z"
           id="path836" />
        <path
           d="M 31,11 V 5 H 25 V 0 h -6 v 89 h 6 v -6 h 6 V 77 H 25 V 11 Z"
           id="path838" />
        <path
           d="m 43,71 h 6 v 12 h -6 z"
           id="path840" />
        <path
           d="m 37,65 h 6 v 6 h -6 z"
           id="path842" />
        <path
           d="m 31,71 h 6 v 6 h -6 z"
           id="path844" />
        <path
           d="m 61,71 h 6 v 12 h -6 z"
           id="path846" />
        <path
           d="m 67,83 h 6 v 11 h -6 z"
           id="path848" />
        <path
           d="m 49,83 h 6 v 11 h -6 z"
           id="path850" />
        <path
           d="m 55,100 h 6 6 v -6 h -6 -6 z"
           id="path852" />
        <path
           d="m 85,59 h -6 v -6 h -6 v 6 H 55 v 12 h 6 v -6 h 24 z"
           id="path854" />
      </g>
      <path
         style="fill:#ffffff;fill-opacity:1;stroke-width:1.94392"
         d="m 51.960187,74.945974 v -5.39978 H 49.13173 46.303274 v -6.171178 -6.171177 h -3.085589 -3.085588 v -2.828457 -2.828456 h -3.342721 -3.342722 v 2.828456 2.828457 h -2.828456 -2.828456 v 3.085588 3.085589 H 24.961285 22.132829 V 30.719202 -1.9366119 h 2.828456 2.828457 V 0.89184405 3.7203011 h 2.828456 2.828456 v 3.085589 3.085588 h 3.085589 3.085589 v 3.0855889 3.085589 h 3.085589 3.085588 v 2.828456 2.828456 h 2.828457 2.828456 v 3.085589 3.085589 h 3.085589 3.085588 v 3.085589 3.085588 h 3.085589 3.085589 v 2.828457 2.828456 h 2.828456 2.828456 v 2.828456 2.828457 h -8.999633 -8.999634 v 6.171177 6.171178 h 3.085589 3.085588 v 6.171177 6.171177 h 3.085589 3.085589 v 5.142648 5.142648 h -5.914045 -5.914045 z"
         id="path858" />
    </g>
  </g>
</svg>
